<svg xmlns="http://www.w3.org/2000/svg" width="130" height="130"  version="1.0" viewBox="0 0 300 300"  fill="#0f172a" >
  <g fill="#0f172a">
    <path fill="#cbd5e1" d="M0 150v150h300V0H0v150zm177-59.4c.6 1.4 1 5 1 8 0 6.8-4.4 16.1-12.5 26-4.9 6-5.5 7.3-5 10.1.4 2 .2 3.3-.5 3.3-.5 0-1 .9-1 2s.6 2 1.4 2c2.1 0 3 1.9 1.6 3.5-1.3 1.6-3.4 1-2.5-.6.4-.5-.5-.9-1.9-.9-3.5 0-4.2 1.8-1.2 3.2 3.9 1.7 3.3 3.8-.9 3.6-4.1-.1-6.1 1.3-5.1 3.7.5 1.4 1.4 1.6 4.1 1.1 3.9-.8 4.3-.2 1.8 2.6-.9 1-3 1.8-5 1.8-3.1 0-3.3.2-3.3 3.5 0 4.6 1.9 13.4 3.7 16.8 2.2 4.4 2.4 2.8.3-3.3-3.2-9.1-2.2-11.3 3.4-6.9 2.2 1.8 2.4 2.3 1.4 4.2-1 1.9-.7 1.8 2-.5 4.3-3.6 8-4.2 13.1-2.2 2.8 1.1 4.9 2.9 6.6 5.8 2.1 3.4 2.5 3.6 1.9 1.3-.5-2.1-.2-2.7.9-2.7 4.8 0 9.7 5 9.7 9.9 0 1.9-.6 2-8.4 1.8-7.5-.2-8.6-.4-9.2-2.2-.6-1.7-.8-1.5-1.1 1.2-.4 3.3-4.3 8.3-6.5 8.3-.7-.1-.3-.9 1-2l2.3-1.9-2.5-1.6c-2-1.4-2.8-1.4-4.5-.3-2.6 1.6-2.6 2.4-.1 3.8 1.1.6 1.8 1.5 1.5 2.1-1 1.4 5.9 1.1 8-.5 1.4-1 2.5-1.1 3.9-.4 1.1.6 5.3.7 10.7.3l8.9-.7v2.7c0 4-5 8.5-9.5 8.5-3.6 0-3.6-.1-3-3.2l.7-3.3-3.1 3.6c-3.8 4.6-7.5 6.1-13.7 5.7-4.7-.3-4.9-.4-4.7-3.1l.2-2.8-2 2.6c-3.5 4.4-7 5.5-17.1 5.5-9.7 0-12.9-1.1-16.3-5.6-.8-1.1-1.5-1.4-1.5-.7-.1 3.8-9.1-2.8-10.5-7.5l-.7-2.4 8.9.7c8.3.7 9 1 11.8 4.1 2.8 3.2 9.7 6.2 8.1 3.5-.4-.6-1.2-1.1-1.8-1.1-1.9 0-5.8-4.2-5.8-6.1 0-1 .8-2.3 1.8-2.9 1.6-.9 1.6-1.1-.1-2.1-1.3-.7-1.6-1.7-1.1-3.2.6-2.1.5-2.1-1.2-.6-1.3 1-3 1.3-5.4 1-3.3-.6-3.5-.8-3.4-4.3.2-6.1 4.3-10.7 10.7-12.2 2.4-.6 2.7-.4 2.7 2.1 0 1.6.7 5.7 1.4 9.3 1.2 5.6 1.2 6.7 0 8.1-1.3 1.4-1.1 1.8 1.5 2.9 2.5 1 3.4.9 5.2-.4l2.2-1.5-3.2-1.8c-4.1-2.3-4.6-4.4-4.6-18.3v-11.5l-3.2.3c-3.9.5-4 0-1.3-5.6 1.1-2.2 2-4.4 2-4.8 0-1.4-4.3 3.2-6.6 7.2-1.9 3.2-2.9 4.1-4.4 3.7-2.4-.6-2.5-1.6-.6-4.6.8-1.2 1.7-3.8 2-5.7l.7-3.5-2.5 4.5c-1.3 2.5-3.5 5.5-4.9 6.8-3.2 3-7.1 2.7-7.5-.6l-.4-2.3-2.5 2.6c-4.6 4.5-9.4 4.7-12.6.4-1.7-2.3-1.8-3.1-.8-6.2 1.8-5.3 7.3-9.7 12-9.7 5.3 0 6.7 1.9 5.4 7.5-.9 4.1-.9 4.4 1.3 4.9 3.1.8 5.8-1 8.3-5.5 2.6-4.5 2.6-4.9.2-4.9-2.3 0-3.6 1.7-3.6 4.5 0 2.5-2.8 2.6-3.3.2-.6-2.9 3.6-6.7 7.4-6.7 3.6 0 5.4 1.7 6.3 6l.6 3 5.4-5.2c4.6-4.5 5.3-4.9 4.8-2.8-.4 1.4-.9 5.3-1.2 8.5l-.6 6 2.6-5.9c2.3-5.4 4.7-9.5 3.2-5.4-1.9 4.9-1.9 5.3.2 2.9 1.2-1.3 2.1-1.8 2.1-1.2 0 .7.5.9 1 .6.6-.4.7-1.1.4-1.7-.4-.5.3-2.3 1.5-3.9 2.1-2.8 2.8-5.9 1.4-5.9-.5 0-2.1 1.4-3.6 3.2-2.5 2.9-2.8 3-2.4 1 .6-2.7-1.8-9.2-3.4-9.2-.6 0-1.6 1.3-2.2 3-.6 1.6-1.5 3-1.9 3-1.3 0-.9-5.5.5-6.9 1-1.1 1-1.3 0-.7-.7.4-1.3.4-1.3-.1 0-1.5 1.5-3 4.5-4.4 2.4-1.1 3.4-2.8 5.5-8.9 5.8-16.7 10.3-23.3 18.5-27 5.6-2.6 7.4-2.4 8.5.6zm22.3 50.8c2 1.5 2.2 4.9.6 9.5-.6 1.8-.9 3.5-.5 3.8 1.2 1.3 5.8-3.1 8.8-8.5 3.8-6.7 4.9-5.1 1.8 2.7-1.1 2.8-2 5.9-2 6.9.1 1.5.2 1.5 1.5-.1.9-1.2 2-1.7 3.3-1.3 2.3.8 6.6-2.4 8.7-6.4 2-3.9 1.9-4.2-1.2-3.8-2.4.2-2.8.8-2.8 3.3-.1 3.5-2.8 4.2-3.3.8-.5-3.1 3.1-6.3 7.2-6.3 3.9 0 5.6 1.6 5.9 5.8l.2 3 2.7-1.9c1.5-1.1 3.8-3.4 5.2-5.2 3.1-3.9 4.1-3.1 2.7 2-.6 2.1-1.1 5.5-1.1 7.5 0 5.5-.8 6.8-4.2 6.8-3.4 0-3.4-.3-.3-7.5l1.7-4-2.7 2.5c-1.5 1.4-3.5 4.1-4.6 6.2-1.4 2.8-2.3 3.5-3.9 3.1-2.3-.6-2.5-1.5-.8-4.6 1.1-2.1 2.9-8.7 2.3-8.7-.2 0-1.3 1.9-2.5 4.2-3.6 7-6 9.1-9.7 8.5-1.8-.3-3.5-.1-3.8.4-.8 1.2-5.5 1.2-5.5 0 0-.5-1.8-.7-4.1-.4-6.6.9-7.2-2.2-2.2-9.9 3.3-4.9 2.8-6.7-1.4-5.6-2.9.7-3.2 1.3-3.8 5.6-1.1 7.2-5.1 12.1-8.9 10.6-3.1-1.2-2.6-3.6 1.9-7.9 5.8-5.7 6.1-9.5.5-6.5-1.1.6-1.7 1.6-1.4 2.4.8 2-2.4 2.8-3.6.8-.8-1.5-1.1-1.5-2-.2-1.8 2.6-2.4 6.4-1.2 6.8 1.9.6 1.4 3-.8 4.2-1.4.8-2.6.8-4 0-3-1.6-2.6-6.3 1-10.3 3.3-3.8 3.8-5.7 1.4-5.7-2.5 0-7.4 6.1-8.8 11-1 3.3-1.9 4.6-3.4 4.8-3.2.5-3.2-3.8 0-10.1 1-2.1 1.8-4.8 1.6-5.9-.4-3.1 2-3.4 2.8-.4l.6 2.6 2.9-2.1c3.9-2.7 8.1-2.2 9 1.1.4 1.4.7 2 .8 1.3.1-1.4 6.2-3.3 10.7-3.3 1.7 0 3.7-.7 4.4-1.5 1.5-1.8 2-1.8 4.3-.1zm-100.7 1.8c-.4 1.3-.9 4.5-1.2 7.3-1 9.2-1.1 9.5-4.5 9.5-3.5 0-3.5-.3-.4-7.5l1.7-4-2.7 2.5c-1.5 1.4-3.5 4.1-4.6 6.2-1.4 2.8-2.3 3.5-3.9 3.1-2.3-.6-2.5-1.5-.8-4.6 1.1-2.1 2.9-8.7 2.3-8.7-.2 0-1.3 1.9-2.5 4.2-4.1 8-8.9 11-11.9 7.4-1.8-2.1-.2-4.8 2.4-4.2 2.7.7 6.9-2.3 9-6.4 2-3.9 1.9-4.2-1.2-3.8-2.4.2-2.8.8-2.8 3.3-.1 3.5-2.8 4.2-3.3.8-.5-3.1 3.1-6.3 7.2-6.3 3.9 0 5.6 1.6 5.9 5.8l.2 3 2.8-2c1.5-1.1 3.8-3.3 4.9-4.9 2.6-3.5 4.3-3.8 3.4-.7zm25.2 40c.5 1.8.7 3.6.5 4-.7 1.3-9.3.9-9.3-.3 0-1.3 5.8-6.9 7.1-6.9.5 0 1.2 1.5 1.7 3.2z"/>
    <path  d="M163.6 95.4c-2 1.8-3.6 4-3.6 4.7.1.8 1.2.1 2.5-1.6 1.3-1.6 3.4-3.7 4.7-4.7 1.3-1 1.8-1.8 1.1-1.8-.6 0-2.8 1.5-4.7 3.4zM157.4 104.9c.3.5-.1 2.5-.9 4.5-1.5 3.6-1 4.7 1.2 2.5 1.6-1.6 6-.3 7.3 2.1 2.6 4.9-2.8 9.7-7.4 6.7-1.3-.9-2.6-2.7-2.8-3.9-.2-1.5-1.1.2-2.6 5.2-1.3 4.1-2.8 8.3-3.3 9.4-.7 1.3-.7 2.2 0 2.9.7.7 1.4.2 2.2-1.6 1.4-3.2 2.6-3.5 3.1-.7.3 1.8.5 1.8 3.3-.8 2.9-2.6 6.8-7.4 12.8-15.5 2.6-3.4 2.7-3.8 1-4.3-4.9-1.6-7.8-2.9-11-5.1-1.9-1.3-3.2-1.9-2.9-1.4z"/>
    <path  d="M159.3 114.7c-.7.2-1.3 1.3-1.3 2.4 0 2.2 4.5 2.8 5.2.6 1.1-2.9-.8-4.3-3.9-3zM106 146.7c-3 3.8-2.4 8.7 1 9.1 1.7.2 3.4-.6 5-2.3 1.9-2 2.1-2.5.7-2.5-2.1 0-2.1-.9-.1-3.1.9-1 1.3-2.3.9-2.8-1.2-2-5.3-1.1-7.5 1.6zM144.7 163.5c.3 3.8.7 7.2.9 7.4.7.8.2-9.4-.6-11.9-.5-1.5-.6.4-.3 4.5zM143.5 171c.1 5.2.8 10.6 1.4 12 1.1 2.4 1.1 2.4.5-.5-.4-1.7-1-7.1-1.5-12l-.7-9 .3 9.5zM146.1 174c-.1 3.1 2 10.9 2.6 9.4.2-.6-.3-3.5-1.1-6.5-.9-3.2-1.5-4.4-1.5-2.9zM151.5 189.6c-2 1.5-2 1.5-.1 3 2.4 1.7 3.6 1.7 5.9 0 1.7-1.3 1.7-1.5-.5-3-2.7-1.9-2.8-1.9-5.3 0z"/>
  </g>
</svg>